<?xml version="1.0" encoding="UTF-8" standalone="no"?>
<!-- Created with Inkscape (http://www.inkscape.org/) -->

<svg
   xmlns:dc="http://purl.org/dc/elements/1.1/"
   xmlns:cc="http://creativecommons.org/ns#"
   xmlns:rdf="http://www.w3.org/1999/02/22-rdf-syntax-ns#"
   xmlns:svg="http://www.w3.org/2000/svg"
   xmlns="http://www.w3.org/2000/svg"
   xmlns:sodipodi="http://sodipodi.sourceforge.net/DTD/sodipodi-0.dtd"
   xmlns:inkscape="http://www.inkscape.org/namespaces/inkscape"
   width="68.085258mm"
   height="83.731636mm"
   viewBox="0 0 68.085258 83.731636"
   version="1.1"
   id="svg2657"
   inkscape:version="0.92.3 (2405546, 2018-03-11)"
   sodipodi:docname="click_hover_rounded.svg"
   inkscape:export-filename="U:\matikkapakki\ikonit\click_hover.png"
   inkscape:export-xdpi="96"
   inkscape:export-ydpi="96">
  <defs
     id="defs2651" />
  <sodipodi:namedview
     id="base"
     pagecolor="#ffffff"
     bordercolor="#666666"
     borderopacity="1.0"
     inkscape:pageopacity="0.0"
     inkscape:pageshadow="2"
     inkscape:zoom="0.8618011"
     inkscape:cx="99.373707"
     inkscape:cy="197.67461"
     inkscape:document-units="mm"
     inkscape:current-layer="layer1"
     showgrid="false"
     inkscape:window-width="1278"
     inkscape:window-height="1368"
     inkscape:window-x="1273"
     inkscape:window-y="0"
     inkscape:window-maximized="0" />
  <metadata
     id="metadata2654">
    <rdf:RDF>
      <cc:Work
         rdf:about="">
        <dc:format>image/svg+xml</dc:format>
        <dc:type
           rdf:resource="http://purl.org/dc/dcmitype/StillImage" />
        <dc:title></dc:title>
      </cc:Work>
    </rdf:RDF>
  </metadata>
  <g
     inkscape:label="Layer 1"
     inkscape:groupmode="layer"
     id="layer1"
     transform="translate(-40.902193,-83.962946)">
    <path
       style="fill:#ffffff;stroke:#000000;stroke-width:2.46499991;stroke-linecap:butt;stroke-linejoin:round;stroke-miterlimit:4;stroke-dasharray:none;stroke-opacity:1"
       d="m 59.513424,159.82631 -15.248548,-25.5429 -1.439407,-4.10555 -0.14253,-5.5472 0.983099,-2.29823 1.124017,-1.26025 1.374153,-0.77555 1.571092,-0.21181 1.976148,0.29113 1.966072,1.25611 5.451342,5.45134 V 92.32312 l 0.515589,-2.801317 1.605084,-2.337763 2.124275,-1.608686 2.324029,-0.379908 h 2.413967 l 2.280283,0.352772 2.118622,1.630168 1.75058,2.130488 0.325635,2.376962 v 38.974574 -22.67369 h 8.205612 l 2.187012,0.65127 2.901546,3.52833 v 17.66935 -18.10717 l 5.78074,0.38756 1.840798,0.79287 3.628206,3.04628 v 12.24546 -12.17975 l 5.09965,0.3274 2.60014,1.39577 1.50229,2.75044 1.42203,5.84548 -1.60796,18.4904 -1.90275,6.61635 -6.944838,10.40369 -1.554904,1.6581 -2.108193,1.35893 -3.734067,1.58312 -0.897664,0.33053 -1.667894,0.0844 -14.522211,-0.29488 -8.650129,-2.93072 z"
       id="path6931"
       inkscape:connector-curvature="0"
       sodipodi:nodetypes="cccccccccccccccccccccccccccccccccccccccccccccccc" />
  </g>
</svg>
